<svg 
 xmlns="http://www.w3.org/2000/svg"
 xmlns:xlink="http://www.w3.org/1999/xlink"
 width="3556px" height="589px">
<path fill-rule="evenodd"  fill="rgb(0, 209, 178)"
 d="M100.000,-0.000 L488.594,-0.000 C543.822,-0.000 588.594,44.772 588.594,100.000 L588.594,488.594 C588.594,543.822 543.822,588.594 488.594,588.594 L100.000,588.594 C44.772,588.594 -0.000,543.822 -0.000,488.594 L-0.000,100.000 C-0.000,44.772 44.772,-0.000 100.000,-0.000 Z"/>
<path fill-rule="evenodd"  fill="rgb(51, 51, 51)"
 d="M241.456,517.136 L241.456,486.963 L372.306,486.963 L372.306,517.136 L241.456,517.136 ZM165.705,443.174 C179.897,443.174 191.561,436.994 201.285,430.282 L217.469,455.624 C201.174,469.299 180.353,475.555 161.906,475.555 C119.290,475.555 86.639,449.613 86.639,404.740 C86.639,359.715 123.196,333.773 164.842,333.773 C186.181,333.773 204.156,341.316 215.453,352.144 L196.999,377.017 C186.685,369.519 177.203,366.154 167.037,366.154 C143.782,366.154 127.709,381.289 127.709,404.740 C127.709,428.115 143.510,443.174 165.705,443.174 Z"/>
<path fill-rule="evenodd"  fill="rgb(0, 209, 178)"
 d="M3418.539,259.929 C3392.419,259.929 3379.460,269.260 3379.460,282.507 C3379.460,298.188 3396.782,301.860 3444.630,312.572 C3531.687,332.069 3555.921,356.871 3555.921,402.811 C3555.921,453.899 3507.201,493.900 3416.653,493.900 C3366.314,493.900 3314.276,474.403 3278.667,450.674 L3314.232,398.463 C3348.955,419.982 3387.725,431.898 3428.086,431.898 C3459.130,431.898 3472.853,421.588 3472.853,407.707 C3472.853,391.998 3459.174,386.238 3403.795,374.574 C3327.048,358.145 3296.550,329.995 3296.550,286.423 C3296.550,233.853 3345.644,198.085 3426.214,198.085 C3476.510,198.085 3519.008,217.862 3548.361,236.632 L3510.837,286.884 C3482.370,269.663 3449.699,259.929 3418.539,259.929 ZM3036.260,370.975 C3044.502,411.802 3074.411,430.098 3120.669,430.098 C3146.271,430.098 3168.330,423.143 3193.356,410.500 L3221.088,460.911 C3188.863,481.574 3147.034,493.900 3109.236,493.900 C3021.272,493.900 2952.834,439.615 2952.834,345.834 C2952.834,253.507 3024.052,198.085 3099.632,198.085 C3186.646,198.085 3232.463,256.819 3232.463,333.508 C3232.463,348.829 3230.095,363.991 3228.957,370.975 L3036.260,370.975 ZM3102.411,261.729 C3069.546,261.729 3045.665,279.432 3037.254,314.876 L3158.271,314.876 C3153.998,279.960 3134.861,261.729 3102.411,261.729 ZM2836.673,428.139 C2857.753,428.139 2875.766,423.841 2892.390,418.089 L2907.552,478.636 C2882.526,486.095 2852.922,493.900 2815.355,493.900 C2725.563,493.900 2693.654,444.137 2693.654,370.140 L2693.654,270.512 L2622.551,270.512 L2622.551,208.165 L2697.412,204.911 L2708.183,118.646 L2777.384,118.646 L2777.384,204.911 L2896.335,204.911 L2896.335,270.512 L2777.384,270.512 L2777.384,369.067 C2777.384,411.984 2795.520,428.139 2836.673,428.139 ZM2438.175,493.900 C2363.732,493.900 2294.285,439.774 2294.285,346.151 C2294.285,252.211 2363.732,198.085 2438.175,198.085 C2512.618,198.085 2582.065,252.211 2582.065,346.151 C2582.065,439.774 2512.618,493.900 2438.175,493.900 ZM2438.175,265.645 C2399.643,265.645 2379.974,297.223 2379.974,346.151 C2379.974,394.921 2399.643,426.340 2438.175,426.340 C2476.707,426.340 2496.376,394.921 2496.376,346.151 C2496.376,297.223 2476.707,265.645 2438.175,265.645 ZM2163.718,323.616 C2163.718,286.063 2152.904,269.404 2122.335,269.404 C2100.016,269.404 2084.811,279.742 2065.271,298.778 L2065.271,487.074 L1981.541,487.074 L1981.541,204.911 L2049.763,204.911 L2055.797,242.521 L2058.072,242.521 C2082.564,218.532 2113.594,198.085 2155.589,198.085 C2219.356,198.085 2247.448,241.686 2247.448,312.846 L2247.448,487.074 L2163.718,487.074 L2163.718,323.616 ZM1728.263,370.975 C1736.505,411.802 1766.414,430.098 1812.672,430.098 C1838.274,430.098 1860.333,423.143 1885.359,410.500 L1913.091,460.911 C1880.866,481.574 1839.037,493.900 1801.239,493.900 C1713.275,493.900 1644.837,439.615 1644.837,345.834 C1644.837,253.507 1716.054,198.085 1791.635,198.085 C1878.648,198.085 1924.466,256.819 1924.466,333.508 C1924.466,348.829 1922.098,363.991 1920.960,370.975 L1728.263,370.975 ZM1794.414,261.729 C1761.549,261.729 1737.668,279.432 1729.257,314.876 L1850.274,314.876 C1846.001,279.960 1826.863,261.729 1794.414,261.729 ZM1512.556,458.060 L1510.439,458.060 C1489.741,478.507 1460.446,493.900 1432.317,493.900 C1360.243,493.900 1313.287,438.291 1313.287,346.151 C1313.287,253.824 1372.597,198.085 1433.901,198.085 C1464.837,198.085 1485.918,209.115 1505.040,228.424 L1506.998,228.424 L1503.081,184.781 L1503.081,88.681 L1586.812,88.681 L1586.812,487.074 L1518.589,487.074 L1512.556,458.060 ZM1503.081,285.344 C1487.905,271.463 1472.382,266.625 1455.881,266.625 C1425.340,266.625 1398.976,291.478 1398.976,345.172 C1398.976,400.479 1419.430,425.360 1453.635,425.360 C1472.728,425.360 1488.474,418.276 1503.081,399.183 L1503.081,285.344 ZM1130.178,493.900 C1055.735,493.900 986.288,439.774 986.288,346.151 C986.288,252.211 1055.735,198.085 1130.178,198.085 C1204.621,198.085 1274.068,252.211 1274.068,346.151 C1274.068,439.774 1204.621,493.900 1130.178,493.900 ZM1130.178,265.645 C1091.646,265.645 1071.977,297.223 1071.977,346.151 C1071.977,394.921 1091.646,426.340 1130.178,426.340 C1168.710,426.340 1188.379,394.921 1188.379,346.151 C1188.379,297.223 1168.710,265.645 1130.178,265.645 ZM835.627,426.340 C865.238,426.340 889.573,413.445 909.861,399.442 L943.627,452.315 C909.631,480.847 866.189,493.900 827.700,493.900 C738.786,493.900 670.664,439.774 670.664,346.151 C670.664,252.211 746.936,198.085 833.827,198.085 C878.349,198.085 915.851,213.824 939.422,236.416 L900.919,288.310 C879.400,272.665 859.616,265.645 838.406,265.645 C789.888,265.645 756.352,297.223 756.352,346.151 C756.352,394.921 789.319,426.340 835.627,426.340 Z"/>
</svg>